<?xml version="1.0" encoding="UTF-8" standalone="no"?>
<svg xmlns="http://www.w3.org/2000/svg" height="33px" width="33px" version="1.1" xmlns:xlink="http://www.w3.org/1999/xlink" viewBox="0 0 33 33">
 <g fill="#161614">
  <path d="m16.608 0.455c-8.994 0-16.288 7.293-16.288 16.29 0 7.197 4.667 13.302 11.14 15.456 0.815 0.15 1.112-0.353 1.112-0.785 0-0.386-0.014-1.411-0.022-2.77-4.531 0.984-5.487-2.184-5.487-2.184-0.741-1.882-1.809-2.383-1.809-2.383-1.479-1.01 0.112-0.99 0.112-0.99 1.635 0.115 2.495 1.679 2.495 1.679 1.453 2.489 3.813 1.77 4.741 1.353 0.148-1.052 0.569-1.77 1.034-2.177-3.617-0.411-7.42-1.809-7.42-8.051 0-1.778 0.635-3.233 1.677-4.371-0.168-0.412-0.727-2.069 0.16-4.311 0 0 1.367-0.438 4.479 1.67 1.299-0.362 2.693-0.542 4.078-0.549 1.384 0.007 2.777 0.187 4.078 0.549 3.11-2.108 4.475-1.67 4.475-1.67 0.889 2.242 0.33 3.899 0.163 4.311 1.044 1.138 1.674 2.593 1.674 4.371 0 6.258-3.809 7.635-7.437 8.038 0.584 0.503 1.105 1.497 1.105 3.017 0 2.177-0.02 3.934-0.02 4.468 0 0.436 0.294 0.943 1.12 0.784 6.468-2.159 11.131-8.26 11.131-15.455 0-8.997-7.294-16.29-16.291-16.29"/>
 </g>
</svg>
